<?xml version="1.0" standalone="no"?>
<!DOCTYPE svg PUBLIC "-//W3C//DTD SVG 20010904//EN"
 "http://www.w3.org/TR/2001/REC-SVG-20010904/DTD/svg10.dtd">
<svg version="1.0" xmlns="http://www.w3.org/2000/svg"
 width="310.000000pt" height="310.000000pt" viewBox="0 0 310.000000 310.000000"
 preserveAspectRatio="xMidYMid meet">
<metadata>
Created by potrace 1.11, written by Peter Selinger 2001-2013
</metadata>
<g transform="translate(0.000000,310.000000) scale(0.100000,-0.100000)"
fill="#000000" stroke="none">
<path d="M9 1920 c-1 -31 0 -728 0 -752 1 -16 12 -18 91 -18 l90 0 0 148 c0
82 2 151 5 154 14 14 87 -11 108 -38 23 -29 92 -140 115 -185 8 -14 23 -38 35
-53 22 -26 24 -27 120 -24 l97 3 -85 135 c-47 74 -106 154 -130 176 l-44 42
31 13 c90 37 138 115 135 218 -3 87 -31 131 -102 166 -69 34 -96 37 -292 39
l-173 2 -1 -26z m317 -120 c43 -17 64 -48 64 -94 0 -75 -39 -107 -137 -116
l-63 -5 0 112 0 113 54 0 c30 0 67 -5 82 -10z"/>
<path d="M1549 1945 c-5 -1 -3 -778 1 -786 4 -6 38 -9 81 -7 l74 3 -1 313 c-1
172 0 311 1 310 2 -2 6 -19 9 -39 6 -38 12 -61 26 -94 5 -11 16 -40 24 -65 8
-25 33 -97 56 -160 22 -63 50 -142 62 -175 34 -99 30 -95 109 -95 67 0 70 1
80 28 36 92 189 548 189 563 0 10 3 20 8 22 4 3 6 -134 4 -304 l-3 -309 90 0
89 0 -1 397 -2 398 -126 0 -126 1 -38 -116 c-22 -63 -43 -122 -47 -130 -6 -12
-86 -256 -105 -320 -3 -8 -16 23 -29 70 -13 47 -29 94 -34 105 -5 11 -34 92
-64 180 -29 88 -58 171 -64 185 -9 24 -10 25 -136 25 -69 0 -127 1 -127 0z"/>
<path d="M2629 1913 c0 -18 0 -179 0 -358 0 -179 0 -343 0 -365 l1 -40 235 0
236 0 -3 72 -3 73 -142 -1 c-79 0 -143 2 -144 6 -4 24 -3 163 1 169 3 4 61 7
130 6 l125 0 0 73 c0 65 -2 72 -20 73 -11 0 -69 1 -129 2 l-110 2 -1 75 c0 41
1 80 2 86 3 7 48 10 134 9 71 0 133 2 137 5 8 6 10 139 2 141 -3 1 -105 2
-227 3 l-223 1 -1 -32z"/>
<path d="M910 1548 c-104 -211 -190 -386 -190 -389 0 -4 33 -6 73 -5 l72 1
120 238 c66 130 122 237 125 237 3 -1 58 -108 123 -239 l118 -238 70 1 c38 1
69 5 70 11 1 15 -374 765 -383 765 -4 0 -93 -172 -198 -382z"/>
</g>
</svg>
